# xmcd
#
# Track frame offsets: 
#        150
#        17292
#        38402
#        57650
#        87535
#        109375
#        142475
#        189934
#        214540
#        245690
#        260527
#        282157
#
# Disc length: 4122 seconds
#
# Revision: 2
# Processed by: cddbd v1.5.2PL0 Copyright (c) Steve Scherf et al.
# Submitted via: ExactAudioCopy v1.0b1
#
DISCID=b010180c
DTITLE=Galaxy Transport - Psychedelic Rockers
DYEAR=2001
DGENRE=Psychedelic Rock
TTITLE0=I Don't Believe It
TTITLE1=I'm Not Your Emotionstore
TTITLE2=Lost
TTITLE3=Visitors
TTITLE4=Pearl
TTITLE5=Medicine
TTITLE6=Loy
TTITLE7=Welcome to the Other Side
TTITLE8=Interstellar Fairy Drive
TTITLE9=Starship Pilots (on Too Strong Dope)
TTITLE10=Psychedelic Rockers
TTITLE11=Shivas Awakening
EXTD=
EXTT0=
EXTT1=
EXTT2=
EXTT3=
EXTT4=
EXTT5=
EXTT6=
EXTT7=
EXTT8=
EXTT9=
EXTT10=
EXTT11=
PLAYORDER=
